<?xml version="1.0" encoding="utf-8"?>
<!-- Generator: Adobe Illustrator 16.0.0, SVG Export Plug-In . SVG Version: 6.00 Build 0)  -->
<!DOCTYPE svg PUBLIC "-//W3C//DTD SVG 1.1//EN" "http://www.w3.org/Graphics/SVG/1.1/DTD/svg11.dtd">
<svg version="1.1" id="Layer_1" xmlns="http://www.w3.org/2000/svg" xmlns:xlink="http://www.w3.org/1999/xlink" x="0px" y="0px"
	 width="720px" height="576px" viewBox="0 0 720 576" enable-background="new 0 0 720 576" xml:space="preserve">
<path fill="#231F20" d="M664.008,233.802v146.162H517.846c-26.904,0-48.72-21.817-48.72-48.722v-24.36
	c0-26.904,21.815-48.72,48.72-48.72h73.08v24.36h-54.81c-3.371,0-6.09,2.72-6.09,6.09v60.9c0,3.37,2.719,6.091,6.09,6.091h66.99
	V221.621c0-6.74-5.439-12.18-12.181-12.18h-121.8v-24.36h146.161C642.191,185.081,664.008,206.897,664.008,233.802z"/>
<path fill="#231F20" d="M249.882,112v267.964H103.721C76.816,379.964,55,358.146,55,331.242v-97.44
	c0-26.905,21.816-48.721,48.721-48.721h73.081v24.36h-48.721c-6.741,0-12.18,5.44-12.18,12.18v121.802
	c0,6.74,5.439,12.181,12.18,12.181h60.901V112H249.882z"/>
<path fill="#231F20" d="M456.944,233.802v146.162h-60.9V221.621c0-6.74-5.438-12.18-12.18-12.18h-60.9v170.523h-60.901V112h60.901
	v73.081h85.261C435.129,185.081,456.944,206.897,456.944,233.802z"/>
<path fill="#231F20" d="M405.105,408.562v40.951h-40.954c-7.539,0-13.651-6.111-13.651-13.65v-6.825
	c0-7.539,6.112-13.651,13.651-13.651h20.478v6.825h-18.771c-0.944,0-1.707,0.762-1.707,1.707v17.064
	c0,0.944,0.763,1.705,1.707,1.705h25.595v-37.54c0-1.89-1.523-3.413-3.411-3.413H350.5v-6.826h40.953
	C398.993,394.908,405.105,401.021,405.105,408.562z"/>
<path fill="#231F20" d="M101.367,435.862h13.651c0,7.539-6.112,13.65-13.651,13.65H74.066c-7.54,0-13.653-6.111-13.653-13.65
	v-27.301c0-7.54,6.113-13.653,13.653-13.653h27.301c7.539,0,13.651,6.113,13.651,13.653h-13.651v-3.414
	c0-1.89-1.524-3.413-3.412-3.413H77.477c-1.889,0-3.411,1.523-3.411,3.413v34.128c0,1.888,1.522,3.412,3.411,3.412h20.478
	c1.888,0,3.412-1.524,3.412-3.412V435.862z"/>
<path fill="#231F20" d="M449.472,435.862h13.65c0,7.539-6.112,13.65-13.65,13.65h-27.303c-7.539,0-13.651-6.111-13.651-13.65
	v-27.301c0-7.54,6.112-13.653,13.651-13.653h27.303c7.538,0,13.65,6.113,13.65,13.653h-13.65v-3.414c0-1.89-1.525-3.413-3.413-3.413
	h-20.478c-1.889,0-3.412,1.523-3.412,3.413v34.128c0,1.888,1.523,3.412,3.412,3.412h20.478c1.888,0,3.413-1.524,3.413-3.412V435.862
	z"/>
<path fill="#231F20" d="M159.384,394.908h-27.302c-7.538,0-13.65,6.113-13.65,13.653v27.301c0,7.539,6.112,13.65,13.65,13.65h27.302
	c7.539,0,13.651-6.111,13.651-13.65v-27.301C173.035,401.021,166.922,394.908,159.384,394.908z M159.384,439.275
	c0,1.888-1.524,3.412-3.414,3.412h-20.475c-1.89,0-3.414-1.524-3.414-3.412v-34.128c0-1.89,1.524-3.413,3.414-3.413h20.475
	c1.89,0,3.414,1.523,3.414,3.413V439.275z"/>
<path fill="#231F20" d="M647.413,394.908H620.11c-7.539,0-13.651,6.113-13.651,13.653v27.301c0,7.539,6.112,13.65,13.651,13.65
	h27.303v6.826c0,1.889-1.524,3.412-3.412,3.412h-20.478c-1.889,0-3.413-1.523-3.413-3.412v-3.414h-13.651
	c0,7.54,6.112,13.653,13.651,13.653h40.953v-58.017C661.063,401.021,654.951,394.908,647.413,394.908z M647.413,439.275
	c0,1.888-1.524,3.412-3.412,3.412h-20.478c-1.889,0-3.413-1.524-3.413-3.412v-34.128c0-1.89,1.524-3.413,3.413-3.413h20.478
	c1.888,0,3.412,1.523,3.412,3.413V439.275z"/>
<path fill="#231F20" d="M231.053,408.562v40.951h-13.651v-44.365c0-1.89-1.525-3.413-3.414-3.413h-20.476
	c-1.888,0-3.414,1.523-3.414,3.413v44.365h-13.649v-54.604h40.954C224.941,394.908,231.053,401.021,231.053,408.562z"/>
<path fill="#231F20" d="M603.046,408.562v40.951h-13.649v-44.365c0-1.89-1.525-3.413-3.413-3.413h-20.478
	c-1.89,0-3.413,1.523-3.413,3.413v44.365h-13.651v-54.604h40.955C596.932,394.908,603.046,401.021,603.046,408.562z"/>
<path fill="#231F20" d="M545.029,394.908v6.826h-3.412c-1.891,0-3.415,1.523-3.415,3.413v44.365h-13.65v-54.604H545.029z"/>
<path fill="#231F20" d="M333.436,408.562v-3.414c0-1.89-1.525-3.413-3.412-3.413h-20.477c-1.89,0-3.414,1.523-3.414,3.413v44.365
	h-13.651v-54.604h40.954c7.538,0,13.65,6.113,13.65,13.653H333.436z"/>
<path fill="#231F20" d="M261.894,401.734v40.953h3.287c1.889,0,3.414-1.524,3.414-3.412v-3.413h13.651
	c0,7.539-6.114,13.65-13.651,13.65h-20.478v-47.778h-13.651v-6.826h13.651v-6.825h13.777v6.825h27.176v6.826H261.894z"/>
<path fill="#231F20" d="M493.961,401.734v40.953h3.289c1.89,0,3.412-1.524,3.412-3.412v-3.413h13.652
	c0,7.539-6.112,13.65-13.652,13.65h-20.478v-47.778h-13.65v-6.826h13.65v-6.825h13.776v6.825h27.178v6.826H493.961z"/>
</svg>
